<?xml version="1.0" standalone="no"?>
<!DOCTYPE svg PUBLIC "-//W3C//DTD SVG 20010904//EN"
 "http://www.w3.org/TR/2001/REC-SVG-20010904/DTD/svg10.dtd">
<svg version="1.0" xmlns="http://www.w3.org/2000/svg"
 width="1500.000000pt" height="1468.000000pt" viewBox="0 0 1500.000000 1468.000000"
 preserveAspectRatio="xMidYMid meet">
<metadata>
Created by potrace 1.16, written by Peter Selinger 2001-2019
</metadata>
<g transform="translate(0.000000,1468.000000) scale(0.100000,-0.100000)"
fill="#000000" stroke="none">
<path d="M5715 14592 c50 -48 162 -147 250 -220 88 -74 169 -141 180 -151 78
-65 185 -140 185 -129 0 23 -22 92 -43 138 -26 55 -81 131 -136 187 -106 107
-394 263 -484 263 l-42 -1 90 -87z"/>
<path d="M6173 14581 c176 -170 220 -209 297 -265 76 -55 189 -120 196 -113 8
8 -38 87 -94 164 -66 88 -178 203 -264 269 l-56 44 -91 0 -90 0 102 -99z"/>
<path d="M7375 14640 c159 -63 213 -78 705 -190 537 -122 1014 -258 1364 -387
146 -54 351 -138 411 -169 l30 -15 -29 6 c-108 23 -356 55 -428 55 l-87 0 -19
-52 c-19 -51 -50 -150 -91 -293 -11 -38 -18 -71 -16 -74 3 -2 15 5 28 16 41
37 141 99 219 136 170 80 321 116 514 124 l132 6 118 -57 c254 -122 525 -303
810 -542 266 -222 338 -288 614 -564 373 -374 657 -696 925 -1050 44 -58 82
-107 85 -110 12 -11 161 -224 251 -360 302 -454 561 -952 714 -1370 33 -90 96
-242 200 -485 103 -240 155 -394 221 -664 50 -207 73 -290 139 -501 99 -314
162 -590 195 -858 11 -89 32 -222 46 -295 78 -408 95 -521 134 -887 5 -47 14
-227 20 -400 6 -173 15 -342 20 -375 24 -166 30 -212 40 -360 8 -110 10 -478
8 -1185 -4 -988 -5 -1031 -26 -1185 -41 -298 -69 -386 -175 -549 -84 -128
-133 -185 -361 -429 -61 -65 -122 -132 -136 -149 -59 -72 -255 -227 -405 -320
-197 -123 -413 -223 -800 -373 -132 -51 -307 -121 -390 -155 -82 -35 -301
-118 -485 -186 -381 -139 -476 -176 -610 -234 -177 -77 -195 -85 -270 -122
l-75 -37 607 0 606 -1 64 29 c34 16 104 48 153 71 50 23 146 67 215 97 69 30
164 73 213 94 48 21 89 39 91 39 3 0 33 13 68 29 35 16 121 55 193 86 171 76
421 201 575 288 113 65 335 208 385 249 11 9 51 42 89 73 119 96 226 194 367
334 203 204 301 344 375 536 l39 100 3 2160 c3 2155 3 2160 -18 2310 -28 195
-45 295 -140 790 -34 178 -74 423 -90 555 -23 187 -70 342 -207 680 -90 221
-119 303 -184 518 -88 289 -215 634 -349 942 -67 156 -263 545 -352 700 -120
207 -115 198 -267 510 -144 294 -223 430 -330 566 -34 43 -89 118 -123 167
-98 141 -205 262 -452 514 -274 280 -341 353 -449 488 -151 187 -302 324 -762
691 -60 48 -141 114 -179 147 -175 149 -487 331 -826 480 -203 89 -256 111
-450 190 -209 85 -401 166 -475 201 -49 24 -49 24 -25 34 17 8 -282 11 -990
11 l-1015 0 100 -39z"/>
<path d="M5490 14553 c-139 -50 -250 -76 -590 -138 -323 -58 -469 -93 -640
-149 -58 -19 -170 -53 -250 -76 -298 -85 -432 -134 -533 -192 l-59 -33 80 -3
c84 -3 71 -6 540 132 303 89 367 107 532 149 283 73 471 109 680 132 l125 13
67 -45 c37 -25 75 -53 85 -62 28 -26 252 -193 318 -238 80 -53 176 -105 183
-98 10 9 -28 117 -74 210 -24 50 -73 129 -109 176 -73 98 -228 260 -247 258
-7 -1 -56 -17 -108 -36z"/>
<path d="M11790 12185 c0 -4 33 -50 73 -102 310 -409 563 -780 737 -1083 84
-147 216 -408 209 -415 -15 -14 -264 128 -450 256 -219 151 -271 179 -504 269
-383 147 -625 200 -917 200 -224 0 -386 -32 -548 -107 -41 -19 -174 -73 -295
-120 -242 -94 -444 -188 -452 -210 -3 -7 15 -54 41 -104 l46 -90 -28 -10 c-69
-27 -84 -23 -130 33 -23 29 -57 70 -75 91 l-33 38 -31 -48 c-17 -27 -36 -59
-43 -73 -7 -14 -16 -27 -20 -30 -4 -3 -32 -53 -62 -112 -62 -119 -84 -203 -75
-280 6 -50 47 -143 63 -143 4 0 24 51 43 113 19 61 39 112 45 112 6 0 63 -14
126 -31 63 -17 180 -49 260 -71 212 -57 566 -147 630 -159 30 -5 73 -14 95
-18 199 -43 492 -93 885 -151 107 -16 227 -34 265 -40 39 -6 147 -22 240 -35
94 -13 197 -28 230 -34 33 -6 78 -12 100 -15 47 -6 245 -38 400 -66 149 -27
279 -40 405 -40 88 0 102 2 84 13 -12 6 -53 31 -90 54 -38 23 -109 58 -159 77
-85 32 -120 39 -455 91 -47 8 -168 23 -270 35 -102 11 -230 27 -285 35 -55 8
-174 24 -265 35 -170 21 -254 34 -495 76 -170 30 -525 115 -525 126 0 11 372
10 591 -2 101 -6 290 -22 419 -35 129 -14 325 -34 435 -45 110 -12 229 -25
265 -30 74 -10 379 -36 519 -44 92 -6 268 -49 331 -81 49 -25 90 -66 114 -114
40 -79 103 -262 127 -369 23 -102 23 -103 5 -188 -10 -48 -51 -184 -91 -303
-82 -242 -110 -345 -120 -441 l-7 -65 37 55 c58 88 150 286 189 405 88 267
116 545 81 801 -32 232 -58 286 -227 460 -103 106 -128 142 -257 369 -208 368
-319 544 -460 730 -80 106 -93 122 -210 249 -40 45 -123 142 -184 216 -114
139 -302 356 -318 366 -5 3 -9 2 -9 -1z m-560 -1061 c104 -19 208 -53 430
-140 l171 -68 -80 -80 c-93 -95 -121 -145 -121 -216 0 -47 2 -52 43 -81 57
-41 129 -78 202 -102 52 -16 104 -20 390 -27 363 -8 428 -17 548 -72 110 -51
108 -58 -25 -58 -108 0 -267 16 -388 40 -115 22 -196 30 -407 40 -120 5 -301
19 -403 30 -102 11 -248 25 -325 30 -77 6 -180 15 -230 20 -49 5 -259 17 -465
25 -436 18 -578 33 -719 77 l-35 11 120 59 c154 77 253 134 504 289 113 69
246 147 296 172 148 74 283 88 494 51z"/>
<path d="M2628 11745 c-203 -19 -523 -63 -583 -79 -78 -22 -386 -123 -770
-253 -192 -65 -366 -123 -385 -128 -34 -10 -35 -11 -35 -63 1 -34 6 -58 17
-68 28 -28 354 -94 553 -113 71 -6 119 -17 164 -36 163 -69 328 -98 736 -131
110 -8 263 -26 340 -39 199 -34 424 -55 830 -80 50 -3 207 -12 350 -20 386
-23 797 -64 915 -91 23 -6 22 -7 -15 -21 -22 -7 -96 -26 -165 -40 l-125 -26
-510 0 c-478 0 -528 1 -800 27 -159 15 -422 43 -584 63 -265 32 -311 35 -460
30 -91 -3 -188 -11 -216 -18 l-50 -12 40 -14 c149 -54 413 -93 730 -108 197
-10 448 -34 459 -45 6 -6 6 -10 0 -10 -183 2 -829 -11 -853 -17 l-34 -8 59
-45 59 -45 150 -6 c83 -4 524 -4 980 -1 781 4 1107 -2 1318 -25 l62 -7 -90
-13 c-58 -9 -284 -16 -635 -21 -442 -7 -551 -11 -575 -23 -16 -8 -55 -28 -85
-44 l-55 -29 40 -8 c79 -15 624 -21 825 -9 166 10 221 10 370 -4 268 -24 497
-30 571 -16 76 15 190 50 277 86 57 23 98 44 261 131 57 31 100 68 143 125 18
24 38 38 60 43 78 15 258 70 258 79 0 5 -76 84 -170 176 -93 91 -170 170 -170
174 0 13 159 -73 245 -132 75 -52 235 -203 235 -223 0 -4 38 -8 85 -7 47 1 85
5 85 10 0 20 -199 241 -291 324 -78 70 -180 146 -279 207 -291 181 -500 275
-680 308 -36 6 -96 22 -135 35 -287 94 -620 147 -1315 210 -157 14 -330 33
-385 41 -142 22 -577 27 -767 9z m612 -165 c69 -5 199 -14 290 -20 794 -50
1221 -127 1625 -295 173 -71 220 -102 305 -194 42 -47 117 -135 165 -196 48
-60 93 -116 99 -124 9 -12 -13 -13 -154 -7 -304 12 -684 54 -1210 132 -198 29
-280 36 -515 44 -607 20 -922 53 -1202 125 -127 33 -135 39 -75 53 200 46 387
238 433 445 l12 58 51 -6 c28 -3 107 -10 176 -15z m-1464 -329 c94 -38 198
-78 230 -87 l59 -18 -80 -13 c-147 -25 -201 -20 -420 37 -110 28 -210 54 -222
57 -13 3 -23 8 -23 12 0 12 205 79 245 80 28 1 93 -20 211 -68z m3874 -686
c65 -16 120 -37 120 -46 0 -6 -230 -52 -324 -64 -47 -6 -50 -5 -92 36 -24 24
-44 46 -44 50 0 6 48 21 105 33 46 9 184 4 235 -9z"/>
<path d="M266 11618 c4 -77 11 -136 18 -140 60 -39 334 -57 404 -27 l33 14
-58 41 c-89 63 -382 244 -394 244 -7 0 -8 -41 -3 -132z"/>
<path d="M266 11304 c-8 -22 -8 -134 1 -134 21 0 269 32 272 35 5 6 -241 115
-259 115 -4 0 -11 -7 -14 -16z"/>
<path d="M620 10836 c0 -16 29 -81 55 -121 63 -99 113 -145 336 -307 47 -35
115 -88 149 -118 169 -148 299 -235 510 -342 125 -63 280 -132 285 -126 1 2 5
35 8 73 l7 71 -143 64 c-281 127 -393 202 -682 458 -129 115 -259 210 -370
273 -64 36 -155 80 -155 75z"/>
<path d="M9458 10160 c-38 -3 -70 -9 -73 -12 -11 -11 164 -185 335 -331 101
-87 390 -296 565 -410 61 -39 112 -75 113 -79 2 -4 7 -8 12 -8 7 0 149 -89
360 -225 l65 -42 102 7 c56 3 105 8 108 11 3 3 -126 94 -287 202 -390 261
-479 324 -633 451 -69 57 -221 200 -260 246 l-20 23 20 -6 c255 -74 578 -142
910 -192 61 -9 133 -20 160 -25 28 -5 75 -12 105 -15 76 -9 393 -62 476 -79
96 -20 264 -34 504 -41 l205 -7 -45 44 c-95 94 -90 92 -315 99 -221 8 -378 28
-680 88 -110 21 -272 51 -360 66 -197 33 -407 80 -630 139 -331 89 -542 116
-737 96z"/>
<path d="M5825 8949 c-265 -147 -338 -183 -469 -234 -324 -127 -586 -135
-1084 -36 -265 53 -571 85 -703 74 -69 -6 -70 -7 -85 -42 -30 -71 -67 -188
-100 -318 -18 -72 -51 -177 -74 -233 -23 -56 -39 -104 -35 -108 3 -4 70 -8
147 -10 l141 -4 -7 203 c-4 112 -4 246 0 297 7 92 7 92 34 92 40 0 247 -37
375 -67 367 -85 503 -106 695 -107 217 -1 393 24 560 81 58 20 130 42 160 49
74 18 188 17 240 -1 23 -8 46 -15 49 -15 4 0 5 29 3 64 l-4 64 48 27 c142 81
252 181 299 275 27 53 29 60 18 60 -5 0 -98 -50 -208 -111z"/>
<path d="M11647 8312 c-24 -206 -29 -187 52 -201 94 -17 243 -69 322 -113 85
-48 144 -101 222 -201 65 -83 122 -140 167 -169 23 -15 31 -15 100 3 41 10 83
19 92 19 33 0 27 19 -36 101 -197 261 -449 419 -705 445 l-68 6 -59 125 c-33
69 -62 127 -65 128 -3 2 -13 -62 -22 -143z"/>
<path d="M7935 8279 c-188 -18 -313 -43 -720 -145 -481 -120 -888 -345 -1135
-625 -80 -90 -183 -243 -201 -297 -15 -44 -6 -86 37 -171 38 -77 54 -88 54
-40 0 52 49 180 103 269 71 118 286 332 423 422 264 174 583 295 1109 419 509
119 1179 87 1985 -97 352 -81 575 -146 684 -201 100 -50 332 -204 366 -243 3
-3 25 -21 50 -40 25 -19 47 -37 50 -40 3 -3 34 -28 70 -55 36 -28 67 -52 70
-55 81 -81 307 -186 337 -156 10 9 -72 109 -155 187 -105 100 -299 247 -537
406 -197 132 -413 207 -825 288 -124 25 -277 56 -340 69 -63 14 -142 30 -175
36 -103 17 -464 59 -604 70 -156 12 -514 11 -646 -1z"/>
<path d="M8585 7524 c-137 -8 -298 -27 -430 -50 -77 -14 -162 -29 -190 -33
-327 -58 -830 -200 -1204 -342 -249 -94 -352 -139 -581 -254 -253 -127 -351
-183 -607 -349 -63 -40 -222 -163 -318 -245 -17 -14 -51 -42 -75 -61 -24 -19
-48 -39 -54 -45 -6 -5 -45 -39 -86 -74 -211 -180 -399 -401 -484 -569 -14 -29
-28 -52 -30 -52 -2 0 0 15 4 33 4 17 26 111 48 207 47 200 85 337 111 395 18
40 72 125 156 245 52 74 89 140 82 147 -10 9 -100 -37 -144 -73 -73 -60 -115
-127 -266 -429 -207 -413 -234 -478 -262 -645 -21 -125 -35 -448 -35 -796 0
-286 -1 -305 -17 -300 -243 69 -380 111 -390 120 -9 9 -8 46 7 166 11 85 22
166 25 180 18 88 45 342 45 430 l-1 105 -25 -30 c-13 -16 -29 -35 -34 -41 -14
-18 -88 -169 -111 -227 -60 -150 -169 -578 -169 -662 0 -102 29 -200 134 -454
71 -172 95 -198 261 -281 67 -33 125 -60 128 -60 4 0 7 57 7 128 0 198 28 328
82 382 63 64 274 151 531 220 78 21 246 68 372 104 408 119 595 163 808 191
100 13 279 15 1162 15 1027 0 1045 0 1127 -21 71 -18 129 -22 408 -29 l325 -8
300 -55 c514 -95 805 -139 1010 -152 60 -4 142 -18 205 -35 58 -16 166 -45
240 -65 174 -47 229 -64 435 -140 94 -34 244 -88 335 -119 763 -263 1129 -452
1421 -734 l47 -44 148 -5 149 -5 20 43 c11 24 48 96 82 159 34 63 78 156 99
205 35 84 38 99 42 212 5 136 -6 393 -17 393 -4 0 -15 -26 -26 -57 -28 -88
-130 -360 -163 -436 -22 -50 -32 -64 -39 -55 -16 20 -39 108 -73 283 -29 147
-54 265 -66 306 -4 14 -120 79 -140 79 -20 0 63 -408 95 -468 7 -13 8 -23 1
-27 -5 -3 -22 -45 -36 -93 -15 -48 -33 -99 -40 -114 -13 -26 -60 -58 -83 -58
-10 0 -65 164 -126 375 -48 164 -117 369 -146 434 -16 35 -29 78 -29 95 0 50
-58 380 -91 515 -124 516 -464 1244 -726 1560 -51 60 -161 157 -169 148 -3 -3
0 -33 7 -68 16 -82 89 -223 187 -361 228 -321 427 -768 497 -1112 33 -163 30
-196 -9 -96 -54 138 -178 385 -250 500 -13 19 -40 64 -61 100 -21 36 -41 67
-44 70 -3 3 -55 77 -114 165 -157 232 -191 279 -281 385 -460 540 -802 844
-1144 1015 -195 98 -471 212 -579 239 -175 44 -928 95 -1178 80z m-270 -246
c-4 -40 -13 -112 -22 -160 l-15 -88 -115 0 -114 0 -51 106 c-28 58 -46 109
-42 114 5 4 43 16 84 25 41 10 118 31 170 46 52 15 99 28 103 28 5 1 5 -32 2
-71z m1155 17 c134 -20 246 -37 248 -40 4 -4 -10 -79 -43 -220 -13 -55 -29
-126 -35 -157 l-11 -58 -131 0 c-100 0 -138 4 -165 17 -44 21 -101 95 -152
202 -40 83 -41 87 -41 194 l0 110 43 -6 c23 -4 152 -22 287 -42z m-450 -22 c0
-80 -24 -185 -59 -257 -31 -66 -95 -146 -115 -146 -38 0 -205 188 -254 286
-26 52 -62 145 -62 162 0 9 56 12 245 12 l245 0 0 -57z m-1184 -125 c-6 -64
-47 -323 -62 -387 -5 -23 -8 -23 -75 -19 -116 9 -181 48 -326 196 -68 68 -123
127 -123 131 0 16 238 95 359 121 107 22 138 26 195 29 l39 1 -7 -72z m2160
33 c53 -51 107 -118 128 -159 16 -32 16 -34 -11 -85 -27 -49 -30 -52 -66 -50
-56 4 -121 47 -227 150 l-95 92 34 13 c18 7 66 27 105 45 39 17 76 32 81 32 6
1 29 -16 51 -38z m-2840 -248 c-10 -163 -22 -212 -53 -224 -67 -25 -160 1
-220 63 -34 36 -103 145 -103 163 0 7 35 22 78 35 83 25 281 78 296 79 5 1 6
-49 2 -116z m1606 -1198 c125 -19 229 -45 371 -91 87 -29 108 -40 111 -57 3
-12 10 -60 16 -107 6 -47 23 -141 37 -210 28 -142 27 -204 -8 -474 -10 -83
-19 -168 -19 -188 0 -46 6 -45 -153 -13 -258 52 -305 56 -711 62 l-389 6 6
161 c8 191 27 349 61 506 27 126 99 367 113 381 35 35 392 50 565 24z m-1020
-292 c32 -131 63 -265 70 -298 18 -86 16 -377 -3 -435 l-15 -45 -327 -3 -326
-2 -10 37 c-38 144 -39 412 -2 561 30 121 121 304 165 334 26 17 314 86 366
87 25 1 27 -4 82 -236z m3014 -70 c267 -147 398 -398 458 -873 24 -191 30
-320 16 -320 -24 0 -825 206 -838 215 -2 2 26 105 61 231 36 126 79 283 96
349 18 66 53 189 78 273 52 171 50 169 129 125z m-4422 -132 c14 -58 31 -151
37 -205 12 -101 8 -350 -5 -364 -6 -6 -614 -21 -625 -15 -7 4 -4 380 3 421 16
89 177 208 351 261 104 31 187 41 202 23 6 -8 23 -62 37 -121z m-1400 -52 c75
-182 115 -415 99 -568 l-8 -74 -119 -33 c-66 -19 -183 -54 -260 -78 -78 -25
-151 -47 -163 -51 l-23 -6 0 158 c0 236 35 422 110 590 l31 69 137 46 c75 25
142 45 147 44 6 -1 27 -45 49 -97z m1901 35 c32 -13 103 -194 181 -462 13 -45
24 -84 24 -86 0 -1 -78 -9 -173 -16 -204 -15 -259 -6 -313 52 -30 31 -32 39
-43 158 -14 155 -14 215 0 280 12 57 21 63 113 80 53 9 180 6 211 -6z m3209
-96 l50 -13 38 -130 c54 -184 95 -355 112 -459 l14 -89 -112 6 c-107 6 -391
41 -586 72 -52 8 -100 15 -107 15 -18 0 -36 107 -68 406 -7 61 -6 62 27 87 65
48 199 101 298 117 73 12 273 5 334 -12z m-4572 -119 c4 -19 22 -120 40 -226
l34 -191 -111 -7 c-60 -4 -139 -5 -174 -3 l-65 3 -12 55 c-17 76 -49 378 -41
387 6 6 286 22 312 18 6 -1 13 -17 17 -36z m6177 -40 c102 -13 96 -7 185 -182
84 -165 124 -288 167 -512 19 -99 46 -421 36 -431 -3 -3 -49 17 -103 44 -118
59 -286 129 -404 167 -47 15 -88 32 -92 38 -3 5 -15 55 -27 111 -26 126 -44
423 -35 575 6 107 9 116 36 147 44 50 101 60 237 43z m643 -601 c59 -87 97
-160 143 -268 32 -75 177 -502 172 -506 -2 -2 -68 25 -148 60 -79 34 -165 71
-192 81 -35 13 -49 24 -54 44 -9 36 -10 642 -1 664 11 25 18 19 80 -75z"/>
<path d="M3396 3120 c21 -144 106 -340 220 -511 68 -100 187 -247 339 -419 61
-69 165 -188 230 -265 222 -262 378 -426 520 -544 154 -129 544 -428 680 -522
27 -19 56 -39 65 -46 89 -69 426 -283 566 -361 231 -128 419 -214 664 -302 80
-29 190 -73 245 -99 l100 -46 164 -3 c99 -2 161 0 157 6 -9 14 -218 114 -326
155 -52 20 -193 73 -312 117 -234 86 -355 141 -565 256 -146 80 -382 225 -508
313 -302 209 -662 472 -765 559 -116 98 -389 382 -554 576 -88 105 -184 216
-212 246 -163 175 -281 326 -407 523 -102 160 -203 301 -266 367 l-42 45 7
-45z"/>
<path d="M10887 3038 c-9 -58 3 -194 34 -393 34 -213 34 -276 -1 -525 -77
-553 -268 -1026 -565 -1405 -76 -97 -261 -279 -332 -327 -72 -50 -191 -97
-303 -121 -113 -25 -322 -29 -500 -10 -63 7 -188 17 -276 23 -438 30 -857 122
-1471 324 -191 62 -402 131 -468 151 -185 58 -400 153 -755 333 -774 393 -824
415 -987 431 -68 6 -95 -1 -55 -16 9 -4 19 -10 22 -13 3 -4 59 -40 125 -79
112 -68 243 -134 775 -395 118 -57 240 -119 270 -137 111 -64 191 -99 565
-244 374 -146 918 -315 1255 -389 432 -95 529 -106 923 -106 541 1 716 23 902
118 155 78 452 399 666 718 173 259 412 663 470 795 106 243 165 542 189 959
13 234 13 300 -2 300 -21 0 -84 -76 -96 -118 -8 -25 -17 -148 -22 -295 -6
-187 -14 -280 -30 -362 -30 -152 -81 -290 -144 -390 l-25 -40 -1 30 c0 51 38
283 70 430 63 283 73 471 39 690 -12 77 -13 79 -24 50 -7 -16 -28 -92 -46
-167 -19 -76 -36 -138 -39 -138 -4 0 -28 55 -54 123 -26 67 -60 146 -75 176
l-28 54 -6 -35z"/>
<path d="M11586 2829 c-3 -17 -6 -57 -6 -88 -1 -89 -24 -243 -64 -430 -27
-123 -105 -405 -130 -471 -8 -19 -14 -38 -15 -42 -1 -4 -4 -13 -6 -20 -3 -7
-16 -47 -29 -88 -79 -248 -166 -467 -239 -605 -74 -139 -102 -187 -241 -407
-60 -95 -134 -213 -164 -263 -30 -49 -65 -106 -77 -125 -13 -19 -44 -74 -69
-122 l-45 -88 59 0 60 0 41 52 c23 29 60 80 82 113 23 33 45 65 49 70 23 27
98 135 98 141 0 3 15 27 33 53 34 47 160 252 216 351 136 240 340 706 396 905
9 33 28 96 41 140 23 76 92 412 93 451 1 11 8 80 16 154 8 74 14 182 13 240
l-3 105 -51 3 c-50 3 -51 2 -58 -29z"/>
<path d="M3350 2631 c0 -8 -5 -65 -11 -127 -7 -61 -8 -137 -4 -169 6 -54 11
-62 83 -139 43 -45 104 -115 137 -156 33 -41 62 -77 65 -80 3 -3 68 -84 145
-180 108 -136 206 -242 445 -480 684 -681 933 -920 1013 -971 43 -28 81 -49
84 -46 6 7 -49 105 -111 197 -60 88 -314 347 -471 480 -271 229 -382 334 -494
465 -41 50 -146 169 -231 265 -133 150 -214 244 -289 335 -129 159 -258 371
-327 537 -18 46 -34 77 -34 69z"/>
</g>
</svg>
