<?xml version="1.0" standalone="no"?>
<!DOCTYPE svg PUBLIC "-//W3C//DTD SVG 20010904//EN"
 "http://www.w3.org/TR/2001/REC-SVG-20010904/DTD/svg10.dtd">
<svg version="1.0" xmlns="http://www.w3.org/2000/svg"
 width="600.000000pt" height="600.000000pt" viewBox="0 0 600.000000 600.000000"
 preserveAspectRatio="xMidYMid meet">
<metadata>
Created by potrace 1.16, written by Peter Selinger 2001-2019
</metadata>
<g transform="translate(0.000000,600.000000) scale(0.100000,-0.100000)"
fill="#000000" stroke="none">
<path d="M3035 5964 c-16 -2 -73 -9 -125 -15 -52 -6 -160 -24 -240 -41 -80
-17 -184 -36 -231 -43 -119 -17 -167 -34 -379 -135 -102 -49 -217 -99 -257
-113 -97 -33 -501 -249 -567 -303 -74 -60 -151 -166 -235 -323 -81 -151 -154
-252 -335 -461 -136 -157 -127 -140 -190 -360 -33 -116 -100 -291 -129 -337
-51 -80 -87 -163 -87 -199 0 -20 -18 -115 -40 -211 -65 -284 -70 -388 -30
-658 5 -33 11 -118 15 -190 9 -174 25 -245 79 -353 45 -90 112 -279 136 -382
18 -83 78 -198 190 -370 56 -85 113 -177 127 -205 14 -27 39 -61 56 -75 18
-14 97 -83 177 -154 80 -71 174 -152 210 -181 36 -29 121 -108 190 -175 150
-148 223 -198 500 -338 113 -58 221 -113 241 -124 21 -10 90 -30 155 -43 143
-29 214 -50 275 -80 39 -20 67 -25 195 -30 82 -4 187 -14 234 -23 125 -24 607
-22 700 2 120 32 464 176 615 257 83 45 184 97 225 115 111 52 356 241 509
394 44 44 82 80 85 80 8 0 26 -100 61 -337 19 -127 37 -242 40 -255 3 -13 12
-81 20 -152 9 -80 19 -133 27 -138 16 -10 58 -10 58 0 0 4 -16 115 -35 247
-69 471 -95 661 -95 697 0 27 10 50 38 87 20 28 68 99 105 158 66 105 68 109
62 158 l-6 50 25 -24 c30 -28 27 -29 54 24 11 22 57 101 101 175 86 142 88
148 210 548 22 74 56 223 76 332 19 109 46 234 61 277 23 72 26 96 31 309 7
268 -4 338 -67 459 -22 42 -41 94 -45 126 -12 88 -71 280 -131 427 -31 75 -71
175 -89 222 -55 144 -119 242 -330 506 -280 349 -270 338 -365 408 -127 95
-244 200 -360 325 -118 127 -117 126 -352 207 -164 56 -227 84 -316 141 -29
18 -88 45 -130 60 -71 24 -96 27 -312 34 -241 8 -352 9 -405 3z m-235 -88 c0
-2 -7 -20 -15 -40 -8 -20 -14 -36 -12 -36 2 0 52 16 113 36 109 36 109 36 194
25 64 -9 104 -9 160 -1 41 7 143 13 225 15 196 5 245 -6 434 -101 82 -41 156
-74 165 -74 17 0 194 -73 275 -114 28 -15 120 -91 213 -177 89 -83 206 -184
258 -224 108 -83 122 -97 217 -217 37 -47 103 -126 147 -175 174 -195 308
-398 361 -546 18 -51 51 -138 74 -195 22 -57 63 -183 91 -280 28 -97 69 -226
90 -286 27 -73 37 -114 31 -125 -5 -9 -3 -97 6 -211 18 -232 9 -376 -34 -499
-17 -50 -28 -111 -33 -181 -9 -116 -23 -174 -75 -310 -20 -50 -46 -130 -59
-178 -47 -173 -141 -359 -241 -477 -45 -52 -81 -109 -115 -181 -61 -131 -164
-289 -228 -352 -27 -26 -74 -79 -106 -119 -54 -69 -72 -87 -196 -185 -159
-127 -224 -165 -606 -356 -369 -185 -470 -211 -847 -219 -188 -5 -237 -3 -285
10 -31 9 -131 21 -222 26 -160 10 -170 12 -312 60 -82 28 -177 57 -213 66 -36
8 -95 30 -132 48 -38 19 -112 51 -165 72 -54 20 -98 42 -98 49 0 6 7 20 15 30
25 33 17 36 -31 14 -45 -19 -48 -19 -85 -3 -29 14 -52 39 -100 111 -34 52 -63
94 -66 94 -2 0 -1 -30 3 -67 5 -55 4 -66 -6 -56 -7 6 -16 43 -19 81 -8 80 -37
131 -148 259 -61 70 -67 80 -79 147 -7 39 -25 121 -39 181 -38 158 -74 371
-75 436 0 49 8 72 55 167 30 61 55 118 55 126 0 11 9 16 26 16 24 0 26 3 21
33 l-6 32 30 -35 c31 -34 156 -221 166 -246 4 -10 -19 -11 -104 -7 l-108 5
-27 -28 c-43 -48 -52 -105 -32 -223 8 -47 45 -128 103 -224 27 -46 59 -109 71
-141 15 -38 50 -92 104 -158 132 -162 143 -181 160 -283 8 -49 22 -108 31
-130 12 -33 14 -34 10 -10 -17 104 -24 179 -19 200 7 27 -35 149 -73 214 -14
24 -49 69 -77 100 -38 41 -63 83 -95 158 -24 56 -61 123 -82 148 -22 27 -46
72 -56 104 -19 61 -24 204 -8 219 6 6 41 2 93 -10 l82 -20 0 -41 c0 -45 20
-130 38 -163 6 -11 30 -29 54 -39 90 -40 136 -75 157 -119 12 -23 34 -55 51
-71 l30 -29 0 56 c0 54 -2 57 -36 78 -40 25 -40 36 0 20 44 -16 46 -13 20 52
-13 34 -24 64 -24 66 0 2 16 -16 36 -40 20 -23 37 -44 39 -46 1 -1 0 28 -2 65
-4 54 1 87 22 158 29 100 32 106 45 85 10 -17 10 -17 35 70 l15 55 -6 -62 c-6
-73 -18 -72 126 -6 118 55 138 61 279 74 139 13 208 8 245 -16 14 -10 56 -58
93 -108 37 -50 83 -108 100 -130 36 -43 48 -77 63 -190 6 -42 34 -141 62 -219
27 -79 55 -158 61 -175 6 -18 15 -33 20 -33 19 0 -2 154 -38 279 -19 68 -39
159 -45 202 -12 100 -38 150 -146 285 -48 60 -91 119 -97 132 -6 12 -22 26
-36 30 -32 9 -222 8 -271 -1 -30 -6 -41 -3 -70 22 l-35 29 27 56 c15 31 34 56
42 56 12 0 11 -8 -5 -46 -12 -25 -19 -48 -17 -50 3 -2 29 4 59 15 l54 18 -2
47 c-1 25 2 46 6 46 4 0 26 -20 50 -44 l42 -43 91 -6 c81 -5 96 -9 132 -36 23
-17 72 -51 109 -77 77 -51 149 -141 182 -226 15 -39 27 -54 43 -56 25 -4 29
-17 35 -112 6 -89 24 -144 63 -188 43 -50 51 -37 13 23 -28 44 -31 55 -25 100
4 36 -1 72 -18 132 -19 67 -34 95 -90 167 -56 73 -66 92 -66 126 0 22 -4 40
-8 40 -15 0 -221 139 -264 178 -53 49 -86 66 -168 87 -36 9 -67 19 -69 21 -3
2 6 15 19 29 l23 25 -36 0 c-33 0 -37 3 -37 25 0 30 -5 31 -49 4 -33 -20 -33
-20 -55 0 -30 28 -107 45 -177 38 -55 -5 -61 -3 -76 19 -19 29 -24 25 -39 -25
l-11 -38 63 -6 c38 -4 83 -16 113 -32 39 -19 66 -25 123 -26 l73 -1 -70 -17
-70 -16 -7 -55 c-4 -30 -11 -75 -17 -99 -7 -31 -6 -51 1 -64 10 -19 7 -19 -38
-13 -27 4 -60 10 -74 12 -14 3 -1 -8 30 -24 l55 -30 -60 -12 c-33 -7 -82 -21
-109 -31 -28 -10 -51 -18 -52 -16 -1 1 -5 38 -9 83 l-7 81 41 7 c22 3 42 9 44
14 3 4 2 35 -2 69 l-6 63 -51 -24 c-49 -23 -52 -27 -64 -77 -7 -30 -31 -97
-53 -149 -21 -52 -56 -139 -77 -193 -21 -54 -49 -106 -62 -117 -32 -27 -93
-43 -139 -35 l-39 7 6 180 7 181 -27 -18 -26 -18 4 54 c3 30 8 92 11 139 3 47
8 102 12 123 4 30 3 36 -8 32 -19 -7 -69 94 -69 139 0 18 -3 54 -6 79 l-7 46
-28 -14 c-35 -19 -39 -19 -39 -1 0 10 16 17 45 22 43 6 45 8 30 23 -24 28 -18
92 15 163 17 34 33 78 36 95 l6 33 42 -24 c42 -24 133 -52 141 -44 2 2 -20 17
-51 34 l-55 29 3 80 3 80 127 0 c101 0 130 3 143 15 13 14 8 15 -56 12 -79 -5
-142 13 -178 51 -19 21 -22 41 -31 193 -13 218 -12 467 1 523 5 24 34 95 64
158 35 74 49 113 40 113 -15 0 -61 -52 -69 -77 -3 -10 -10 -38 -16 -61 -11
-44 -12 -44 -48 -38 l-37 7 33 -22 33 -22 -28 -19 c-51 -35 -119 -66 -158 -74
-37 -7 -38 -8 -15 -16 32 -12 75 -1 109 28 l29 24 16 -40 c9 -22 16 -43 16
-46 0 -6 -34 0 -65 12 -14 6 -16 -1 -13 -52 l3 -58 45 -11 45 -12 -47 -23
c-27 -13 -48 -29 -48 -34 1 -6 14 -27 30 -46 l30 -34 0 -213 0 -213 -25 0
c-37 0 -118 33 -178 73 -104 69 -151 87 -224 87 -37 1 -104 7 -148 15 -44 8
-114 15 -156 15 -92 0 -142 22 -243 107 l-69 58 6 100 c6 121 21 163 70 190
34 18 37 23 37 65 0 25 3 56 6 70 5 23 4 22 -12 -5 -10 -16 -46 -68 -80 -113
-35 -46 -71 -104 -80 -129 -17 -43 -19 -45 -51 -40 -18 3 -33 4 -33 1 0 -2 18
-27 40 -55 l40 -51 0 -97 c0 -107 17 -180 57 -249 14 -24 26 -42 28 -40 2 2
-4 36 -14 76 -11 40 -16 74 -12 76 3 2 24 7 45 12 36 6 39 5 31 -12 -18 -38
-16 -139 3 -218 l18 -78 18 28 c19 27 19 80 0 172 -6 31 -5 34 17 30 22 -3 24
-7 24 -63 0 -33 -4 -90 -8 -127 -8 -66 -8 -66 15 -62 20 5 20 3 -5 -11 -19
-11 -27 -22 -23 -32 4 -9 13 -53 21 -99 18 -101 34 -141 72 -177 l29 -27 24
25 c27 28 27 28 -20 49 -29 13 -30 15 -8 11 14 -3 34 -8 45 -12 14 -5 12 0 -9
29 -15 20 -44 67 -63 105 l-35 68 34 35 c47 49 58 73 47 104 -9 22 -7 26 21
35 29 10 30 13 24 52 -4 22 -9 66 -12 98 l-7 58 33 12 c18 6 44 11 58 11 40 0
174 -40 204 -61 32 -23 55 -24 96 -3 29 14 35 14 65 -1 18 -8 48 -28 65 -43
l32 -27 -44 -129 c-24 -70 -53 -137 -64 -149 -17 -17 -37 -21 -104 -25 -46 -2
-109 1 -140 6 -32 5 -58 6 -58 3 0 -3 8 -16 18 -28 16 -21 27 -23 132 -25
l115 -3 -33 -18 c-50 -27 -138 -39 -199 -26 -67 13 -113 45 -138 94 -11 22
-21 42 -22 44 -1 2 -16 -7 -33 -19 -29 -21 -30 -23 -15 -40 9 -10 21 -38 26
-61 12 -53 25 -69 55 -69 13 0 34 -10 45 -21 17 -17 29 -20 63 -16 23 3 49 9
58 12 12 5 22 -4 38 -34 11 -23 23 -41 26 -41 3 0 18 8 32 18 52 36 54 36 36
-5 -22 -47 -30 -153 -14 -183 17 -31 26 -16 45 73 9 42 21 79 26 82 9 6 23
-41 40 -139 13 -77 8 -206 -10 -251 l-12 -29 -21 32 -20 33 -43 -73 c-23 -40
-46 -87 -49 -105 -4 -18 -19 -41 -34 -52 l-26 -19 22 -54 c12 -29 22 -60 22
-68 -1 -21 -81 107 -136 215 -55 108 -105 177 -195 267 l-67 68 -68 1 c-76 0
-63 17 14 18 23 1 42 4 42 9 0 4 -48 31 -105 61 l-105 54 2 146 3 146 60 21
60 21 -44 8 c-24 4 -81 4 -127 0 -80 -6 -85 -8 -100 -36 -36 -71 -45 14 -14
132 27 102 25 108 -17 56 -21 -25 -39 -44 -41 -42 -2 2 1 26 8 54 6 28 9 55 5
61 -3 6 -24 19 -46 30 l-39 20 0 -60 c0 -88 -15 -65 -30 44 -10 75 -10 109 0
159 19 105 30 102 30 -10 l0 -102 46 -21 c61 -27 67 -25 49 10 -8 16 -15 31
-15 34 0 3 21 6 47 8 l48 3 7 45 c3 25 7 92 7 149 l1 105 -35 -34 -35 -34 0
72 c0 52 3 71 13 69 8 -1 14 23 18 83 3 47 9 93 13 103 10 21 37 37 65 37 24
0 34 18 51 90 7 30 28 95 48 144 l35 89 -21 18 c-30 24 -28 32 7 24 l29 -6 41
124 c23 69 60 160 82 203 41 82 40 83 22 -29 -6 -38 -5 -38 23 -32 57 13 56
12 39 46 -18 34 -15 33 39 -4 l29 -20 -7 71 c-4 40 -5 72 -2 72 2 0 21 -27 41
-60 l37 -61 -25 -37 c-28 -41 -52 -96 -38 -88 5 4 22 26 38 51 22 36 32 45 48
40 11 -3 65 -8 120 -11 55 -2 115 -7 134 -9 l34 -4 -24 25 c-38 41 -120 84
-159 84 l-35 0 52 -31 c49 -28 70 -59 40 -59 -21 0 -148 37 -157 46 -5 5 -10
44 -12 86 -3 72 -1 79 22 102 14 13 47 36 74 52 l49 28 -7 -57 -7 -57 58 27
c74 35 169 36 302 4 51 -12 95 -20 97 -18 6 6 -198 89 -232 94 -20 3 -58 -4
-101 -18 -37 -13 -72 -24 -78 -24 -6 0 -9 29 -7 73 2 39 1 72 -2 72 -3 0 -19
-20 -36 -45 -17 -25 -35 -43 -41 -40 -5 4 -9 34 -9 68 0 59 2 63 37 94 l38 33
-30 -6 c-65 -12 -70 -11 -73 21 -7 56 16 101 98 190 65 72 83 99 101 153 l22
65 20 -27 19 -27 53 59 c63 69 167 143 284 201 73 37 151 70 496 211 143 59
312 99 573 136 27 4 34 10 39 35 3 16 12 29 19 29 8 0 14 -2 14 -4z m-2355
-3188 c-24 -79 -27 -129 -15 -275 7 -84 10 -160 6 -168 -3 -8 4 -33 15 -55 24
-46 42 -239 21 -226 -7 4 -12 22 -12 39 0 51 -20 108 -46 132 -19 17 -24 32
-24 69 0 42 -2 46 -25 46 -14 0 -25 1 -25 3 0 1 13 40 29 87 16 47 27 87 25
89 -1 2 -24 -8 -50 -23 -25 -14 -49 -26 -53 -26 -3 1 20 25 52 54 l59 53 -12
57 c-13 65 -7 104 21 141 25 31 44 33 34 3z m103 -455 c42 -109 56 -237 42
-378 -10 -102 -10 -114 9 -169 42 -120 14 -85 -57 72 -48 107 -52 125 -17 92
30 -28 29 -32 11 120 -17 137 -30 340 -23 340 3 0 19 -35 35 -77z m130 -378
c32 -95 52 -230 52 -350 l-1 -110 -25 49 c-20 37 -24 56 -19 86 7 39 -19 155
-36 166 -5 3 -9 60 -9 127 1 130 4 133 38 32z m127 -266 c32 -100 36 -98 50
20 4 34 12 64 17 67 11 7 7 -116 -8 -246 -7 -63 13 -160 26 -125 25 67 90 284
90 298 0 10 5 15 10 12 6 -3 10 -41 10 -83 l1 -77 25 29 26 29 26 -26 c25 -25
26 -30 23 -126 -2 -70 4 -135 20 -218 12 -65 23 -120 25 -121 1 -2 23 10 48
28 25 17 46 28 46 25 0 -3 -9 -23 -20 -45 -11 -22 -20 -41 -20 -44 0 -2 23
-21 50 -42 50 -38 60 -62 41 -93 -7 -11 -15 -4 -31 30 -14 29 -37 53 -65 71
-55 33 -94 92 -104 155 -8 48 -8 48 -19 20 -7 -16 -12 -33 -12 -38 0 -13 -128
95 -154 130 -10 14 -46 53 -78 87 l-59 60 -6 157 c-4 99 -3 157 4 157 5 0 22
-41 38 -91z"/>
<path d="M3445 5341 c-33 -10 -85 -32 -115 -49 -30 -17 -95 -42 -145 -57 -49
-14 -128 -39 -175 -55 -100 -34 -203 -46 -501 -60 -119 -5 -249 -14 -287 -20
-61 -10 -86 -9 -174 9 -198 39 -325 36 -422 -9 l-41 -18 40 -1 c22 0 80 8 129
19 134 30 184 27 232 -11 61 -49 83 -55 171 -48 43 4 177 8 298 8 206 1 228 3
350 30 72 17 159 42 195 57 36 14 113 43 171 64 142 51 264 102 319 134 52 30
39 32 -45 7z"/>
<path d="M2575 4793 c-76 -12 -122 -26 -194 -59 -108 -51 -234 -133 -306 -199
-55 -51 -49 -50 39 9 125 82 345 173 510 211 90 20 297 37 358 29 40 -6 48 -4
48 10 0 14 -20 16 -177 15 -103 -1 -221 -7 -278 -16z"/>
<path d="M4016 4238 c3 -24 12 -68 20 -99 12 -48 12 -63 -1 -105 -8 -27 -19
-112 -24 -189 -10 -131 -37 -267 -74 -370 -12 -34 -19 -40 -46 -43 -31 -3 -33
-5 -27 -37 6 -32 4 -34 -46 -63 -91 -51 -207 -81 -438 -113 -47 -6 -123 -20
-170 -31 -47 -11 -134 -22 -193 -25 -101 -5 -108 -7 -104 -25 5 -18 1 -19 -61
-14 -147 12 -282 17 -282 11 0 -3 5 -15 10 -25 9 -17 6 -20 -25 -26 -48 -9
-64 -1 -58 30 l5 26 -78 -39 c-125 -62 -209 -84 -309 -80 l-85 4 50 -25 c27
-13 50 -27 50 -31 0 -4 -20 -11 -45 -15 -55 -8 -65 -19 -25 -28 29 -5 30 -7
30 -61 0 -87 -31 -255 -47 -255 -17 0 -18 6 17 -75 16 -39 30 -78 30 -87 0
-15 57 -65 64 -57 18 21 56 115 61 154 14 105 13 105 45 98 25 -4 31 -1 41 21
7 14 18 26 25 26 10 0 10 -10 -2 -47 -8 -27 -17 -61 -21 -77 -7 -32 2 -31 44
7 31 28 35 19 13 -30 -18 -41 -18 -41 8 -99 14 -33 27 -61 29 -63 2 -2 33 10
69 28 36 18 68 30 70 28 3 -2 0 -16 -6 -31 -23 -62 -6 -135 37 -155 34 -16 34
-16 12 35 -11 26 -17 49 -14 52 3 3 40 -28 83 -70 118 -115 122 -117 214 -105
72 10 82 8 160 -18 63 -22 102 -29 158 -29 71 0 167 23 198 47 21 16 23 2 7
-36 -8 -21 -11 -37 -6 -37 5 0 64 59 132 130 67 72 151 154 185 181 l62 51
-15 35 c-19 46 -10 53 26 19 l28 -27 88 66 c49 37 103 74 122 83 30 14 36 14
68 -1 63 -30 75 -63 110 -289 13 -81 15 -136 10 -217 -4 -60 -4 -131 1 -158
l8 -48 7 45 c5 25 11 113 15 195 5 119 3 165 -10 225 -9 41 -16 99 -16 127 0
115 -58 179 -159 176 -31 0 -82 -10 -115 -22 -46 -16 -62 -18 -79 -9 -21 11
-21 11 -4 -16 l17 -26 -32 0 c-20 0 -55 -14 -89 -35 -48 -29 -62 -34 -83 -26
-23 9 -27 6 -51 -37 -15 -26 -30 -69 -34 -97 l-6 -50 -65 77 c-36 42 -66 75
-68 73 -2 -2 13 -38 32 -80 20 -43 36 -79 36 -81 0 -1 -14 5 -32 13 -17 9 -53
18 -79 21 l-47 4 35 65 c19 35 33 66 30 69 -2 3 -24 -25 -47 -62 -34 -54 -41
-72 -36 -98 12 -58 20 -63 65 -33 22 15 43 27 45 27 3 0 -10 -28 -29 -62 -19
-35 -38 -62 -42 -62 -5 1 -18 5 -30 9 -20 5 -23 3 -23 -19 0 -22 -7 -27 -49
-40 -26 -8 -79 -17 -117 -21 -61 -7 -67 -6 -56 8 11 13 8 17 -21 26 -34 12
-75 46 -65 56 14 15 133 27 206 21 45 -3 95 -3 110 1 22 5 14 10 -53 24 -150
34 -254 23 -344 -37 -23 -15 -43 -25 -46 -23 -2 3 9 30 24 62 15 31 25 57 21
57 -3 0 -24 -18 -45 -40 -21 -22 -44 -40 -50 -40 -16 0 -88 77 -78 83 4 3 35
10 68 17 l60 13 -30 13 c-42 18 -48 18 -105 -16 -28 -17 -53 -30 -56 -30 -3 0
14 28 37 61 43 64 40 66 -24 16 -21 -16 -40 -27 -43 -24 -3 3 -10 37 -16 76
-10 68 0 223 16 238 3 4 31 2 62 -4 l56 -10 -6 31 c-5 27 -4 29 8 14 7 -10 17
-18 22 -18 5 1 29 30 54 66 43 62 51 68 155 120 93 45 119 54 165 54 74 0 121
-15 172 -53 61 -47 79 -84 85 -177 5 -63 9 -78 19 -70 9 9 16 -2 28 -44 9 -31
18 -56 19 -56 1 0 3 44 4 98 1 53 7 129 12 167 6 39 11 105 11 147 l0 78 42
26 c23 15 64 36 90 47 34 14 46 23 38 31 -25 25 -7 27 19 2 l30 -29 78 43 c80
44 183 110 183 117 0 2 -8 15 -17 30 l-17 25 31 -6 c29 -7 30 -5 46 46 28 89
37 186 39 425 2 229 -5 303 -38 406 -19 59 -36 62 -28 5z"/>
<path d="M4443 4084 c-23 -19 -59 -58 -79 -87 -21 -29 -55 -71 -75 -94 -21
-22 -58 -69 -83 -103 -41 -55 -46 -68 -46 -114 0 -64 35 -127 145 -261 84
-101 278 -306 273 -288 -2 6 -66 93 -143 193 -77 100 -146 190 -153 200 -12
17 -41 181 -42 234 0 15 3 16 14 7 11 -9 20 -2 43 36 17 26 46 68 67 91 40 48
41 53 24 70 -9 9 -4 20 23 50 63 68 82 92 78 96 -2 3 -23 -11 -46 -30z"/>
<path d="M1131 2957 c-14 -57 -14 -107 -1 -142 10 -26 12 -27 66 -20 l56 7 -4
-36 c-4 -40 1 -44 25 -18 29 32 58 110 60 163 3 73 -18 75 -27 3 -10 -88 -27
-148 -37 -132 -5 7 -9 29 -9 48 0 62 -51 137 -63 93 -19 -70 -19 -72 15 -75
l33 -3 -43 -23 c-49 -26 -48 -27 -56 71 l-5 67 69 0 c75 0 94 14 33 23 -21 4
-52 9 -69 13 -30 6 -32 4 -43 -39z"/>
<path d="M1020 2451 c-15 -29 -12 -59 8 -70 9 -5 44 -14 77 -21 33 -7 65 -15
72 -17 16 -6 17 30 3 58 -12 22 -100 69 -129 69 -11 0 -25 -9 -31 -19z"/>
<path d="M3825 1668 c-22 -12 -88 -41 -147 -64 -149 -60 -177 -80 -227 -162
-46 -77 -84 -168 -76 -182 7 -11 94 -25 102 -17 3 4 -7 27 -21 52 l-27 45 30
0 c19 0 44 12 70 34 23 19 78 54 123 78 51 27 105 66 142 102 56 56 66 62 175
97 l116 37 -110 1 c-93 0 -116 -3 -150 -21z"/>
<path d="M2240 1635 c0 -1 52 -43 115 -91 l115 -89 0 -43 c0 -26 4 -41 10 -37
33 20 -9 207 -49 219 -30 10 -191 44 -191 41z"/>
<path d="M1917 1226 c-20 -25 -37 -49 -37 -55 0 -6 17 -19 39 -30 21 -11 42
-28 46 -38 14 -32 18 -344 6 -423 -7 -41 -25 -112 -40 -157 l-29 -83 26 0 c14
0 36 10 48 21 l23 21 30 -63 31 -64 -4 168 c-2 92 -1 167 2 167 3 0 14 -7 24
-17 10 -9 21 -13 24 -10 11 10 -24 146 -50 196 -13 25 -27 67 -30 92 -3 26
-20 82 -37 125 -22 55 -32 97 -33 136 -1 32 -1 58 -1 58 -1 0 -17 -20 -38 -44z"/>
<path d="M3432 1157 c-23 -23 -42 -46 -42 -50 0 -4 16 0 37 8 20 8 38 14 39
12 2 -2 -8 -50 -21 -108 l-25 -104 24 -105 25 -105 -5 150 c-6 148 -6 151 20
199 26 48 28 65 10 129 -8 25 -15 22 -62 -26z"/>
<path d="M2550 1147 c0 -4 14 -34 30 -67 17 -33 30 -71 30 -86 0 -35 68 -162
97 -181 18 -12 21 -19 13 -33 -14 -27 -12 -76 4 -89 8 -6 17 -32 21 -57 8 -56
29 -54 33 4 2 23 7 42 11 42 11 0 119 -37 132 -46 7 -4 -4 -22 -28 -46 -21
-22 -31 -38 -23 -35 84 32 90 32 116 4 26 -29 134 -67 189 -67 31 0 33 2 39
46 3 26 6 61 6 78 -1 30 -1 30 -26 -17 l-24 -47 -33 14 c-74 32 -86 40 -107
80 -37 67 -40 69 -63 49 -19 -17 -20 -17 -35 7 -22 34 -89 99 -141 135 -50 35
-99 98 -171 215 -52 85 -70 110 -70 97z"/>
<path d="M977 1423 c-26 -4 -28 -7 -20 -31 4 -15 8 -67 7 -115 l-1 -88 23 22
c27 25 28 25 41 -16 15 -45 39 -44 47 2 8 49 8 197 0 217 -6 16 -34 18 -97 9z"/>
</g>
</svg>
